HIERARCHY
ROOT SpineBase
{
  OFFSET 0.000000 0.000000 0.000000
  CHANNELS 6 Xposition Yposition Zposition Zrotation Xrotation Yrotation
  JOINT SpineMid
  {
    OFFSET 0.000000 29.437127 -0.000000
    CHANNELS 3 Zrotation Xrotation Yrotation
    JOINT SpineShoulder
    {
      OFFSET -0.155092 21.775103 -0.633369
      CHANNELS 3 Zrotation Xrotation Yrotation
      JOINT Neck
      {
        OFFSET -0.149098 7.188587 -0.488387
        CHANNELS 3 Zrotation Xrotation Yrotation
        JOINT Head
        {
          OFFSET -0.693657 10.233318 4.508843
          CHANNELS 3 Zrotation Xrotation Yrotation
          End Site
          {
            OFFSET 0 0 0
          }
        }
      }
      JOINT ShoulderLeft
      {
        OFFSET -4.418590 1.558631 18.024683
        CHANNELS 3 Zrotation Xrotation Yrotation
        JOINT ElbowLeft
        {
          OFFSET 15.344047 -17.363155 2.891548
          CHANNELS 3 Zrotation Xrotation Yrotation
          JOINT WristLeft
          {
            OFFSET 5.009169 -22.775545 3.419657
            CHANNELS 3 Zrotation Xrotation Yrotation
            JOINT HandLeft
            {
              OFFSET 0.093255 -13.201660 0.684016
              CHANNELS 3 Zrotation Xrotation Yrotation
              JOINT HandTipLeft
              {
                OFFSET -0.422177 -6.037669 -0.770944
                CHANNELS 3 Zrotation Xrotation Yrotation
                End Site
                {
                  OFFSET 0 0 0
                }
              }
              JOINT ThumbLeft
              {
                OFFSET 0.019190 -3.068631 -2.285346
                CHANNELS 3 Zrotation Xrotation Yrotation
                End Site
                {
                  OFFSET 0 0 0
                }
              }
            }
          }
        }
      }
      JOINT ShoulderRight
      {
        OFFSET -3.528026 -4.186743 -10.578003
        CHANNELS 3 Zrotation Xrotation Yrotation
        JOINT ElbowRight
        {
          OFFSET -5.228834 -23.487223 -1.619296
          CHANNELS 3 Zrotation Xrotation Yrotation
          JOINT WristRight
          {
            OFFSET -4.886861 -22.925851 3.442012
            CHANNELS 3 Zrotation Xrotation Yrotation
            JOINT HandRight
            {
              OFFSET 0.053363 -6.469587 2.026092
              CHANNELS 3 Zrotation Xrotation Yrotation
              JOINT HandTipRight
              {
                OFFSET -2.219423 -5.633317 1.183850
                CHANNELS 3 Zrotation Xrotation Yrotation
                End Site
                {
                  OFFSET 0 0 0
                }
              }
              JOINT ThumbRight
              {
                OFFSET 3.614076 0.091844 -0.075035
                CHANNELS 3 Zrotation Xrotation Yrotation
                End Site
                {
                  OFFSET 0 0 0
                }
              }
            }
          }
        }
      }
    }
  }
  JOINT HipLeft
  {
    OFFSET -0.953993 -0.478391 -2.124028
    CHANNELS 3 Zrotation Xrotation Yrotation
    JOINT KneeLeft
    {
      OFFSET 18.694313 -29.462392 12.095258
      CHANNELS 3 Zrotation Xrotation Yrotation
      JOINT AnkleLeft
      {
        OFFSET 6.952817 -27.141070 5.924404
        CHANNELS 3 Zrotation Xrotation Yrotation
        JOINT FootLeft
        {
          OFFSET -7.400994 -8.144930 -5.718545
          CHANNELS 3 Zrotation Xrotation Yrotation
          End Site
          {
            OFFSET 0 0 0
          }
        }
      }
    }
  }
  JOINT HipRight
  {
    OFFSET -1.117734 1.784681 -4.232552
    CHANNELS 3 Zrotation Xrotation Yrotation
    JOINT KneeRight
    {
      OFFSET 4.485416 -29.665225 2.106544
      CHANNELS 3 Zrotation Xrotation Yrotation
      JOINT AnkleRight
      {
        OFFSET 8.683288 -31.145308 0.855363
        CHANNELS 3 Zrotation Xrotation Yrotation
        JOINT FootRight
        {
          OFFSET -0.726654 -6.913213 2.982294
          CHANNELS 3 Zrotation Xrotation Yrotation
          End Site
          {
            OFFSET 0 0 0
          }
        }
      }
    }
  }
}
MOTION
Frames: 13
Frame Time: 0.033333
108.630325 69.215136 317.731113 -0.000000 -0.000000 94.440499 0.000000 -0.000000 -94.440499 -0.000000 0.000000 0.000000 -0.000000 0.000000 0.000000 0.000000 0.000000 0.000000 -0.000000 0.000000 0.000000 -0.000000 0.000000 0.000000 -0.000000 0.000000 0.000000 -0.000000 0.000000 0.000000 0.000000 0.000000 0.000000 0.000000 0.000000 0.000000 -0.000000 0.000000 0.000000 -0.000000 0.000000 0.000000 -0.000000 0.000000 0.000000 -0.000000 0.000000 0.000000 0.000000 0.000000 0.000000 0.000000 0.000000 0.000000 0.000000 -0.000000 -94.440499 -0.000000 0.000000 0.000000 -0.000000 0.000000 0.000000 0.000000 0.000000 0.000000 0.000000 -0.000000 -94.440499 -0.000000 0.000000 0.000000 -0.000000 0.000000 0.000000 0.000000 0.000000 0.000000
108.946415 69.356366 317.738587 0.343847 -0.035169 92.545376 0.050405 0.341946 -92.545420 -0.000000 0.000000 0.000000 -0.000000 0.000000 0.000000 0.000000 0.000000 0.000000 -0.000000 0.000000 0.000000 -0.000000 0.000000 0.000000 -0.000000 0.000000 0.000000 -0.000000 0.000000 0.000000 0.000000 0.000000 0.000000 0.000000 0.000000 0.000000 -0.000000 0.000000 0.000000 -0.000000 0.000000 0.000000 -0.000000 0.000000 0.000000 -0.040811 1.530483 -0.612677 0.000000 0.000000 0.000000 0.000000 0.000000 0.000000 1.656180 2.171397 -92.391557 0.330037 1.412649 0.247180 2.283047 -5.789433 1.788307 0.000000 0.000000 0.000000 0.050405 0.341946 -92.545420 -0.856864 -0.087950 -0.048812 6.994756 -0.516253 2.793376 0.000000 0.000000 0.000000
109.197161 69.488179 317.739009 0.607705 -0.054619 90.456017 0.059454 0.607251 -90.456042 -0.000000 0.000000 0.000000 -0.000000 0.000000 0.000000 0.000000 0.000000 0.000000 1.393532 0.043361 0.267019 -1.393719 -0.036854 -0.267995 -0.000000 0.000000 0.000000 -0.000000 0.000000 0.000000 0.000000 0.000000 0.000000 0.000000 0.000000 0.000000 -0.000000 0.000000 0.000000 -0.000000 0.000000 0.000000 -0.000000 0.000000 0.000000 -0.018848 2.671132 -1.061190 0.000000 0.000000 0.000000 0.000000 0.000000 0.000000 2.838427 4.026607 -90.229457 0.208599 3.028498 0.537590 5.044052 -12.434461 4.613446 0.000000 0.000000 0.000000 0.343720 1.498319 -90.482835 -0.589820 -0.457637 -0.077142 11.675627 0.019743 4.534731 0.000000 0.000000 0.000000
109.382562 69.610573 317.732379 0.790750 -0.058208 88.149611 0.032643 0.792218 -88.149435 -0.000000 0.000000 0.000000 -0.288338 0.836365 0.185277 0.000000 0.000000 0.000000 1.901764 0.059139 0.362727 -1.902101 -0.047068 -0.364490 -0.000000 0.000000 0.000000 -0.000000 0.000000 0.000000 0.000000 0.000000 0.000000 0.000000 0.000000 0.000000 -0.000000 0.000000 0.000000 -0.000000 0.000000 0.000000 -0.000000 0.000000 0.000000 0.057104 3.409909 -1.342136 0.000000 0.000000 0.000000 0.000000 0.000000 0.000000 3.542239 5.497135 -87.896104 -0.397707 4.861546 0.871640 8.651054 -20.135585 8.937236 0.000000 0.000000 0.000000 0.363176 1.990808 -88.186050 -0.719891 -0.648053 -0.115283 13.322931 1.612643 4.811183 0.000000 0.000000 0.000000
109.502620 69.723550 317.718695 0.892259 -0.045814 85.613818 -0.022564 0.893150 -85.613286 -0.000000 0.000000 0.000000 -0.385737 1.004202 0.240535 0.000000 0.000000 0.000000 2.284317 0.070062 0.433390 -2.284782 -0.052730 -0.435838 -0.000000 0.000000 0.000000 -0.000000 0.000000 0.000000 0.000000 0.000000 0.000000 0.000000 0.000000 0.000000 -0.000000 0.000000 0.000000 -0.000000 0.000000 0.000000 -0.000000 0.000000 0.000000 0.181152 3.739226 -1.452344 0.000000 0.000000 0.000000 0.000000 0.000000 0.000000 3.785806 6.518998 -85.351943 -1.511079 6.916613 1.257984 13.814160 -28.988931 15.546562 0.000000 0.000000 0.000000 0.301083 2.304590 -85.655485 -0.765202 -0.815898 -0.152283 11.119996 4.496551 3.303411 0.000000 0.000000 0.000000
109.557334 69.827109 317.697960 0.911591 -0.017329 82.852044 -0.096246 0.906662 -82.851145 -0.000000 0.000000 0.000000 -0.483705 1.116838 0.292372 0.000000 0.000000 0.000000 2.541291 0.075651 0.479114 -2.541835 -0.054330 -0.481997 -0.000000 0.000000 0.000000 -0.000000 0.000000 0.000000 0.000000 0.000000 0.000000 0.000000 0.000000 0.000000 -0.648850 0.550482 -0.074581 0.649596 -0.549602 0.080814 -0.000000 0.000000 0.000000 0.350618 3.654763 -1.388820 0.000000 0.000000 0.000000 0.000000 0.000000 0.000000 3.614208 7.031967 -82.585237 -3.145737 9.189892 1.714863 21.865995 -38.662631 25.775177 0.000000 0.000000 0.000000 0.178272 2.433415 -82.894496 -0.735203 -0.963464 -0.187919 4.068395 9.277377 -0.087418 0.000000 0.000000 0.000000
109.525677 69.938793 317.652980 0.834059 0.047064 77.966876 -0.219923 0.805919 -77.965672 -0.000000 0.000000 0.000000 -0.711889 1.142873 0.396659 0.000000 0.000000 0.000000 2.329723 0.066849 0.437918 -2.330167 -0.048990 -0.440274 -0.000000 0.000000 0.000000 -0.000000 0.000000 0.000000 0.000000 0.000000 0.000000 0.000000 0.000000 0.000000 -0.755413 0.621148 -0.081957 0.756345 -0.620013 0.090144 -0.000000 0.000000 0.000000 1.427271 3.785298 -1.253900 0.000000 0.000000 0.000000 0.000000 0.000000 0.000000 2.975138 7.259655 -77.660836 -5.517379 11.979384 2.333071 39.889018 -49.574647 46.612977 0.000000 0.000000 0.000000 -0.110842 2.350651 -78.009621 -0.554019 -1.175996 -0.247807 -20.047122 17.994454 -7.847827 0.000000 0.000000 0.000000
109.411504 70.041817 317.607870 0.619323 0.124581 73.927013 -0.291182 0.560622 -73.926262 -0.000000 0.000000 0.000000 -0.774342 1.110024 0.422318 0.000000 0.000000 0.000000 2.300531 0.071786 0.437446 -2.301013 -0.054167 -0.439975 -0.000000 0.000000 0.000000 -0.000000 0.000000 0.000000 0.000000 0.000000 0.000000 0.000000 0.000000 0.000000 -0.797724 0.704666 -0.096782 0.798973 -0.703249 0.106591 -0.000000 0.000000 0.000000 1.274862 2.875515 -0.905943 0.000000 0.000000 0.000000 0.000000 0.000000 0.000000 2.176632 6.615025 -73.608825 -8.451308 14.974191 3.135506 73.636057 -54.476793 86.452449 0.000000 0.000000 0.000000 -0.297360 1.969773 -73.964384 -0.354352 -1.257498 -0.273317 -32.332268 26.090393 -9.700871 0.000000 0.000000 0.000000
109.200610 70.097086 317.575584 0.277589 0.195437 71.109311 -0.274783 0.199362 -71.109306 -0.000000 0.000000 0.000000 -0.786823 1.078001 0.425591 0.000000 0.000000 0.000000 2.448632 0.080706 0.468639 -2.449212 -0.060608 -0.471660 -0.000000 0.000000 0.000000 -0.000000 0.000000 0.000000 0.000000 0.000000 0.000000 0.000000 0.000000 0.000000 -0.807500 0.764137 -0.108839 0.809022 -0.762525 0.119608 -0.000000 0.000000 0.000000 0.100133 1.221221 -0.462373 0.000000 0.000000 0.000000 0.000000 0.000000 0.000000 1.383919 5.124873 -70.863745 -11.753259 17.939429 4.133500 90.973560 -51.987157 105.024522 0.000000 0.000000 0.000000 -0.288261 1.281970 -71.131143 -0.296481 -1.251822 -0.285479 -36.517804 33.276953 -8.802089 0.000000 0.000000 0.000000
109.098881 70.154326 317.539292 0.113411 0.268803 70.700026 -0.291180 0.018195 -70.700245 -0.000000 0.000000 0.000000 -0.825826 1.044968 0.440677 0.000000 0.000000 0.000000 2.721832 0.039411 0.477258 -2.722066 -0.016702 -0.478591 -0.000000 0.000000 0.000000 -0.000000 0.000000 0.000000 0.000000 0.000000 0.000000 0.000000 0.000000 0.000000 -0.712822 0.748792 -0.112692 0.714355 -0.747331 0.122009 -0.000000 0.000000 0.000000 -0.000000 0.000000 0.000000 0.000000 0.000000 0.000000 0.000000 0.000000 0.000000 1.156534 3.949095 -70.377048 -13.030174 18.178029 4.037109 94.240417 -49.925318 105.930752 0.000000 0.000000 0.000000 -0.316596 0.927534 -70.719786 0.077912 -1.188113 -0.264548 -35.503854 34.306340 -8.362755 0.000000 0.000000 0.000000
108.965568 70.160426 317.544012 -0.064168 0.268447 70.647067 -0.232014 -0.149501 -70.647219 -0.000000 0.000000 0.000000 -0.872002 0.999213 0.458026 0.000000 0.000000 0.000000 2.735684 0.022151 0.464918 -2.735774 0.000064 -0.465446 -0.000000 0.000000 0.000000 -0.000000 0.000000 0.000000 0.000000 0.000000 0.000000 0.000000 0.000000 0.000000 -0.589917 0.710390 -0.113645 0.085191 -0.087637 -0.091047 1.318224 0.078695 0.476121 -1.006253 -3.033005 0.608559 0.000000 0.000000 0.000000 0.000000 0.000000 0.000000 0.675773 2.053702 -70.381341 -15.284594 19.281327 4.393011 87.460085 -53.623779 102.473209 0.000000 0.000000 0.000000 -0.232014 -0.149501 -70.647219 -0.526706 -0.853601 -0.256653 -24.016447 22.760926 -8.071146 0.000000 0.000000 0.000000
108.948869 70.158135 317.536099 -0.106203 0.290802 73.700210 -0.249307 -0.183551 -73.700340 -0.000000 0.000000 0.000000 -0.825438 0.964291 0.434608 0.000000 0.000000 0.000000 2.759571 -0.010466 0.441252 -2.759409 0.031698 -0.440236 -0.598944 0.568060 -0.024058 0.599212 -0.567777 0.029997 0.000000 0.000000 0.000000 0.000000 0.000000 0.000000 -0.000000 0.000000 0.000000 -0.580963 0.660097 -0.224537 1.712144 0.335010 0.598232 -1.999482 -4.323464 0.720018 0.000000 0.000000 0.000000 0.000000 0.000000 0.000000 -0.249307 -0.183551 -73.700340 -18.660855 21.482895 5.484758 90.055295 -53.480007 104.475258 0.000000 0.000000 0.000000 -0.249307 -0.183551 -73.700340 -0.452931 -0.752257 -0.225352 -13.916620 11.530367 -5.734163 0.000000 0.000000 0.000000
108.977534 70.178207 317.525700 -0.118626 0.328103 75.660200 -0.288501 -0.196192 -75.660354 -0.000000 0.000000 0.000000 -0.689828 0.868610 0.366976 0.000000 0.000000 0.000000 2.735909 -0.009144 0.438582 -2.735759 0.030067 -0.437646 -0.619806 0.576041 -0.024937 0.620088 -0.575737 0.031168 0.000000 0.000000 0.000000 0.000000 0.000000 0.000000 -0.000000 0.000000 0.000000 -0.630910 0.677676 -0.235379 2.092309 0.365651 0.714802 -3.576331 -4.498330 0.347125 0.000000 0.000000 0.000000 0.000000 0.000000 0.000000 0.198560 1.069165 -75.619190 -15.137863 19.074460 4.494045 85.833694 -53.524241 102.115362 0.000000 0.000000 0.000000 -0.288501 -0.196192 -75.660354 -0.662987 -0.597052 -0.188399 -21.771414 12.189375 -8.465711 0.000000 0.000000 0.000000
